PathFileType	4	(X/Y/Z)	Patient4_TMGait_0pt6_01_right_46.trc.trc
DataRate	CameraRate	NumFrames	NumMarkers	Units	OrigDataRate	OrigDataStartFrame	OrigNumFrames
80.000000000000	80.000000000000	4	33	mm	80.000000000000	124	       141
Frame#	Time	Sacral			L.Shoulder			Chest			R.Shoulder			Neck			R.ASIS			L.ASIS			R.Thigh.Superior			R.Thigh.Lateral			R.Thigh.Inferior			R.Patella			L.Thigh.Superior			L.Thigh.Lateral			L.Thigh.Inferior			L.Patella			L.Shank.Superior			L.Shank.Lateral			L.Shank.Inferior			R.Shank.Superior			R.Shank.Lateral			R.Shank.Inferior			R.Heel			R.Midfoot.Superior			R.Midfoot.Lateral			R.Toe			L.Heel			L.Midfoot.Lateral			L.Midfoot.Superior			L.Toe			L.Elbow			L.Wrist			R.Elbow			R.Wrist			
		X1	Y1	Z1	X2	Y2	Z2	X3	Y3	Z3	X4	Y4	Z4	X5	Y5	Z5	X6	Y6	Z6	X7	Y7	Z7	X8	Y8	Z8	X9	Y9	Z9	X10	Y10	Z10	X11	Y11	Z11	X12	Y12	Z12	X13	Y13	Z13	X14	Y14	Z14	X15	Y15	Z15	X16	Y16	Z16	X17	Y17	Z17	X18	Y18	Z18	X19	Y19	Z19	X20	Y20	Z20	X21	Y21	Z21	X22	Y22	Z22	X23	Y23	Z23	X24	Y24	Z24	X25	Y25	Z25	X26	Y26	Z26	X27	Y27	Z27	X28	Y28	Z28	X29	Y29	Z29	X30	Y30	Z30	X31	Y31	Z31	X32	Y32	Z32	X33	Y33	Z33	

124	56.887500000000	802.852871419698	994.036633241066	416.089565518616	983.704207252716	1429.302565611467	259.329570898225	1071.089602202857	1359.096078736390	427.367142322004	967.365510788566	1424.972756079139	592.571830612816	945.475360772485	1484.252122055608	412.129388490381	1021.292706535741	933.086365775856	551.451170388443	1028.117675513447	951.807069099409	276.434275703826	1096.809452123252	755.618428893122	523.868720958469	1041.817583677668	631.943138595843	585.407935463827	1134.924563581567	596.923617037953	510.799469621109	1159.425276805636	509.466374849527	522.235069174204	1025.511098893359	721.292978878023	303.791979374977	908.454599548774	629.424943517699	238.189626330630	962.558320482494	534.226136569516	305.208712865930	944.739649408690	465.591782990364	314.836333988460	907.260291696977	401.037178712728	305.316119815036	800.684254496022	304.245088579062	249.659262548926	825.016564909378	186.407218387159	323.533337048724	1139.109053129583	418.349320386404	529.222672791268	1076.119771629250	305.751650890042	584.375559074459	1141.054179795031	218.257001509761	531.526473585218	1037.583092765614	41.645607085257	489.395841296354	1199.801206370178	105.331278911837	542.552984197871	1114.342242808971	37.527785685756	571.535361550862	1319.346521241384	61.765376086505	580.651197438277	676.458404422244	41.035255397271	359.470200992970	752.924830947365	35.436492003029	281.787308773220	836.760983863842	95.253249973964	311.016352301523	965.534067230568	39.951216075114	286.383692659069	1044.508238862589	1094.152617528786	117.644080638928	1293.401092271008	1096.682854937997	165.693239170555	824.421475869314	1107.682554678477	685.280509112644	796.103267805855	849.375835308382	704.266102954288	
125	56.900000000000	804.527156030859	993.013864318945	419.252938801854	982.288155403738	1428.377040536782	261.333213435933	1071.084786794507	1359.078616641296	429.084892661742	967.712783956693	1424.270314533764	594.820891033936	944.924488153631	1483.551348191289	414.201347807416	1023.691370665862	932.195648705008	553.742226814696	1029.524942907642	951.073655303963	278.917369558703	1098.679926200762	752.959932116705	526.323065035473	1040.963652936675	630.074696923520	586.429986198197	1133.871548081672	594.446859289129	511.993206646390	1156.450044275503	506.665860716917	522.389464190897	1027.249461104607	720.479867378260	305.534661803876	909.781754529880	628.528833872685	240.651935162316	964.711063182947	532.952572113341	306.884976369596	946.982066620236	463.268970640341	316.007917180980	907.234972506914	399.408731322833	306.663840280356	798.120738924133	305.416197231642	250.997444984688	820.217117740381	186.531440125821	323.818904946488	1135.859477173886	415.425836346872	529.331028070381	1072.137526702480	303.230433026441	584.426233913625	1135.758129638917	215.331786258570	530.874285207848	1029.713169243438	40.918539866433	488.472916975371	1192.800064248629	102.385499599392	541.618847828985	1105.961031061192	36.725972451838	571.239589180880	1311.660202026128	57.131392123570	580.642097952837	669.105392196522	43.282250578331	359.248950894209	745.578105710097	36.388883984451	281.777752535546	830.132409549152	95.500574285056	310.727090586915	958.134898370645	39.617427198212	286.284839811537	1042.591503741018	1092.061221403679	120.959860722317	1291.869396975838	1088.727241807211	168.680005426760	830.057362968364	1104.011911532693	687.489495707956	806.129896189523	845.098740691968	705.995453304620	
126	56.912500000000	806.011148128429	992.425341861027	422.436167290942	980.956838236676	1427.808236890412	263.448614495598	1071.179436366477	1359.328301416345	430.882779745894	968.292695863655	1423.916172712742	597.186617930138	944.524771794857	1483.224710491851	416.380002877472	1025.915572259954	931.708485128540	556.125653855333	1030.686851738505	950.647770113093	281.463729475756	1100.328574372988	750.868903633420	528.580029476578	1040.368237166588	628.852489189314	587.507120148326	1132.763504917318	592.574763808296	512.914368384746	1153.648674387463	504.465821701582	522.434255078346	1029.459475844106	720.106255830606	307.436414650854	912.083148995549	627.638672560253	243.222018725837	968.282291319225	531.858572169171	308.652700955860	950.799386634011	460.921747345164	317.074784704251	908.467359394729	397.820307789667	307.964611189603	796.584939782073	307.061573280353	252.377602427954	816.116372460850	187.075174065801	324.013352474665	1132.707983846602	413.104722086549	529.355270792156	1068.315586528262	301.367603139610	584.610740127488	1130.377717523862	212.980859780695	530.224049974109	1021.632428277745	40.495423132780	487.818682398786	1185.540205242505	100.077230571280	540.649244089230	1097.555733221950	36.272759508760	571.011192092887	1303.876251134988	53.405027519265	580.361404341669	662.014554458927	46.703878010898	358.986263095305	738.370682974768	37.984536417395	281.748693983888	823.914690190688	95.927333035808	310.323082520567	950.693410008827	39.229632560828	286.207907425856	1040.079773573136	1090.084267989673	124.536692388086	1289.723159882084	1079.603149696955	171.422785847214	836.528427981792	1100.426269181614	689.815666186641	817.520204946602	840.895211434549	707.750125258762	
127	56.925000000000	807.261602702913	992.293028699228	425.618623310274	979.753737117571	1427.638158198919	265.663980267634	1071.361276921931	1359.846384975353	432.753443557307	969.101522872349	1423.970096984185	599.634436372516	944.269789074724	1483.302094478389	418.639219162318	1027.910113672467	931.672013336663	558.594378710730	1031.554560076795	950.587284693130	284.037860720386	1101.655379364570	749.406134294062	530.611099659544	1039.959154003419	628.274141617532	588.677400141244	1131.532639320527	591.285480861175	513.636289094738	1150.922558543708	502.857795088939	522.480901969083	1032.129473788587	720.227282412301	309.498956837454	915.449575995757	626.770293136150	245.833833483781	973.385279792846	530.999855800050	310.456545815604	956.294250840064	458.627339468702	317.963903655351	911.096803559621	396.331050283067	309.148894596216	796.235150162870	309.266614651592	253.756822230149	812.865687464359	188.149219699386	324.084351914142	1129.577737820808	411.393869877419	529.398584329054	1064.580455664712	300.144589210846	584.956454287540	1124.951738584569	211.227167359404	529.673518088672	1013.569749482005	40.308558712764	487.431883650327	1178.181203915616	98.435354890834	539.770729443287	1089.328580279671	36.094133398213	570.869723486747	1296.154514933547	50.679903118050	579.943352053389	655.328529888899	51.554958357805	358.687078733941	731.382906209420	40.418432906218	281.698659041927	818.213718232149	96.598970365297	309.800276187077	943.197197485922	38.768554103808	286.164978385727	1036.998093009881	1088.313637994021	128.378481477971	1286.873381735390	1069.357151166863	173.912672317119	843.781816923367	1097.068577089975	692.264377843827	830.270050882563	836.948008011951	709.525340519751	
